<?xml version="1.0" standalone="no"?>
<!DOCTYPE svg PUBLIC "-//W3C//DTD SVG 20010904//EN"
 "http://www.w3.org/TR/2001/REC-SVG-20010904/DTD/svg10.dtd">
<svg version="1.0" xmlns="http://www.w3.org/2000/svg"
 width="850.000000pt" height="1099.000000pt" viewBox="0 0 850.000000 1099.000000"
 preserveAspectRatio="xMidYMid meet">

<g transform="translate(0.000000,1099.000000) scale(0.100000,-0.100000)"
fill="#000000" stroke="none">
<path d="M2705 9786 c-319 -39 -579 -85 -830 -147 -132 -33 -249 -63 -261 -68
-11 -5 -55 -33 -97 -62 l-77 -54 0 -108 0 -108 45 27 45 26 0 -3796 c0 -2088
-2 -3796 -5 -3796 -3 0 -23 11 -45 25 l-40 25 0 -108 0 -108 86 -59 c47 -33
108 -77 137 -99 29 -21 138 -97 242 -169 105 -72 438 -302 740 -512 303 -210
578 -398 612 -419 211 -126 499 -223 763 -256 124 -15 382 -12 511 6 287 40
566 144 804 301 50 33 349 242 665 465 316 222 829 584 1140 803 311 218 594
421 631 451 236 192 449 480 569 769 36 88 100 283 100 306 0 5 -41 9 -91 9
l-92 0 7 30 6 30 -758 0 -757 0 -45 -30 -45 -30 -156 0 -155 0 -595 -418
c-1213 -854 -1365 -959 -1407 -975 -56 -22 -146 -21 -197 2 -22 10 -299 198
-615 417 -316 220 -811 563 -1100 763 -670 464 -654 452 -688 521 l-27 55 0
2005 0 2005 22 40 c11 22 34 52 50 66 15 15 258 188 538 384 281 197 798 561
1149 808 429 302 654 454 684 464 60 17 96 16 162 -7 l55 -18 -40 34 c-75 65
-240 182 -345 245 -203 121 -430 213 -641 260 -147 33 -410 35 -654 5z"/>
<path d="M585 8818 l-60 -63 63 60 c34 33 62 61 62 62 0 8 -10 -1 -65 -59z"/>
<path d="M469 8693 c-13 -16 -12 -17 4 -4 9 7 17 15 17 17 0 8 -8 3 -21 -13z"/>
<path d="M6732 7583 c45 -88 43 -51 46 -655 l3 -568 854 0 855 0 0 373 c0 206
-3 482 -7 615 l-6 242 -89 0 c-87 0 -88 0 -88 -25 l0 -25 -679 0 -679 0 -6 25
c-6 25 -8 25 -107 25 -55 0 -99 -3 -97 -7z"/>
<path d="M12 7550 c0 -14 2 -19 5 -12 2 6 2 18 0 25 -3 6 -5 1 -5 -13z"/>
<path d="M15 4845 c0 -434 1 -611 2 -392 2 219 2 575 0 790 -1 216 -2 37 -2
-398z"/>
<path d="M22 3380 c0 -14 2 -19 5 -12 2 6 2 18 0 25 -3 6 -5 1 -5 -13z"/>
<path d="M510 2245 c13 -14 26 -25 28 -25 3 0 -5 11 -18 25 -13 14 -26 25 -28
25 -3 0 5 -11 18 -25z"/>
</g>
</svg>
