<svg xmlns="http://www.w3.org/2000/svg" xmlns:xlink="http://www.w3.org/1999/xlink" viewBox="0 0 1625 840.02"><defs><style>.cls-1{fill:#fff;}.cls-2{fill:#00a0eb;}.cls-3{stroke-miterlimit:10;stroke-width:0.25px;fill:url(#Gradiente_sem_nome_47);stroke:url(#Gradiente_sem_nome_42);}.cls-4{fill:url(#Gradiente_sem_nome_47-2);}.cls-5{fill:url(#Gradiente_sem_nome_52);}.cls-6{fill:url(#Gradiente_sem_nome_52-2);}.cls-7{fill:url(#Gradiente_sem_nome_57);}.cls-8{fill:url(#Gradiente_sem_nome_57-2);}</style><linearGradient id="Gradiente_sem_nome_47" x1="619.23" y1="249.18" x2="753.39" y2="249.18" gradientUnits="userSpaceOnUse"><stop offset="0" stop-color="#009ceb"/><stop offset="0.46" stop-color="#009ceb"/><stop offset="1" stop-color="#0078d7"/></linearGradient><linearGradient id="Gradiente_sem_nome_42" x1="619.11" y1="249.18" x2="828.85" y2="249.18" gradientUnits="userSpaceOnUse"><stop offset="0" stop-color="#2b2b2b"/><stop offset="0.46" stop-color="#009ceb"/><stop offset="1" stop-color="#0075d6"/></linearGradient><linearGradient id="Gradiente_sem_nome_47-2" x1="627.66" y1="249.18" x2="752.73" y2="249.18" xlink:href="#Gradiente_sem_nome_47"/><linearGradient id="Gradiente_sem_nome_52" x1="847.76" y1="4.98" x2="847.76" y2="291.84" gradientUnits="userSpaceOnUse"><stop offset="0.01" stop-color="#009ceb"/><stop offset="0.5" stop-color="#009ceb"/><stop offset="1" stop-color="#0076d6"/></linearGradient><linearGradient id="Gradiente_sem_nome_52-2" x1="854.78" y1="13.21" x2="854.78" y2="288.55" xlink:href="#Gradiente_sem_nome_52"/><linearGradient id="Gradiente_sem_nome_57" x1="849.22" y1="497.27" x2="849.22" y2="206.57" gradientUnits="userSpaceOnUse"><stop offset="0" stop-color="#0076d7"/><stop offset="0.51" stop-color="#009ceb"/><stop offset="1" stop-color="#009ceb"/></linearGradient><linearGradient id="Gradiente_sem_nome_57-2" x1="856.14" y1="488.89" x2="856.14" y2="209.86" xlink:href="#Gradiente_sem_nome_57"/></defs><g id="Camada_2" data-name="Camada 2"><g id="OBJECTS"><path class="cls-1" d="M35.77,840A35.54,35.54,0,0,1,0,804.25V685a35.54,35.54,0,0,1,35.77-35.77H190.25V681.3H41.34a9.57,9.57,0,0,0-6.89,2.52,8.86,8.86,0,0,0-2.65,6.75V798.69a8.86,8.86,0,0,0,2.65,6.75A9.57,9.57,0,0,0,41.34,808H190.25V840Z"/><path class="cls-1" d="M234.5,835.12a38.88,38.88,0,0,1-12.85-12.85,33.14,33.14,0,0,1-4.9-17.76V635.72h31.8V803.45A4.83,4.83,0,0,0,250,807a4.54,4.54,0,0,0,3.31,1.46h28.62V840H252.26A33.14,33.14,0,0,1,234.5,835.12Z"/><path class="cls-1" d="M321,835.12a37.28,37.28,0,0,1-12.85-12.85,33.85,33.85,0,0,1-4.77-17.76V686.33h31.53V803.45a5,5,0,0,0,5,5H422.9a5,5,0,0,0,5-5V686.33h31.53V804.51a33.85,33.85,0,0,1-4.77,17.76A37.68,37.68,0,0,1,442,835.12a33.59,33.59,0,0,1-18,4.9H338.9A33.81,33.81,0,0,1,321,835.12Z"/><path class="cls-1" d="M482.25,840V636h31.53v50.34h89.3a33.34,33.34,0,0,1,17.62,4.91,37.28,37.28,0,0,1,12.85,12.85,33.84,33.84,0,0,1,4.77,17.75v82.67a33.85,33.85,0,0,1-4.77,17.76,37.28,37.28,0,0,1-12.85,12.85,33.33,33.33,0,0,1-17.62,4.9Zm36.57-31.53H602a4.58,4.58,0,0,0,3.31-1.46,4.86,4.86,0,0,0,1.46-3.58V722.9a4.86,4.86,0,0,0-1.46-3.57,4.58,4.58,0,0,0-3.31-1.46h-83.2a5,5,0,0,0-3.45,1.46,4.65,4.65,0,0,0-1.59,3.57v80.55a4.66,4.66,0,0,0,1.59,3.58A5,5,0,0,0,518.82,808.49Z"/><path class="cls-1" d="M871.41,840V649.24h155a34.57,34.57,0,0,1,17.89,4.77,36.68,36.68,0,0,1,13,13,34.52,34.52,0,0,1,4.9,18V804.25a34.5,34.5,0,0,1-4.9,18,36.6,36.6,0,0,1-13,13,34.57,34.57,0,0,1-17.89,4.77ZM908,808H1025.1a5.08,5.08,0,0,0,3.57-1.33,4.44,4.44,0,0,0,1.46-3.44V686.07a4.44,4.44,0,0,0-1.46-3.44,5.08,5.08,0,0,0-3.57-1.33H908a5.09,5.09,0,0,0-3.58,1.33,4.44,4.44,0,0,0-1.46,3.44V803.19a4.44,4.44,0,0,0,1.46,3.44A5.09,5.09,0,0,0,908,808Z"/><path class="cls-1" d="M1108.3,835.12a38.79,38.79,0,0,1-12.85-12.85,33.14,33.14,0,0,1-4.9-17.76V721.84a33.13,33.13,0,0,1,4.9-17.75,38.79,38.79,0,0,1,12.85-12.85,33.11,33.11,0,0,1,17.75-4.91h85.06a33.63,33.63,0,0,1,18,4.91,37.68,37.68,0,0,1,12.72,12.85,33.84,33.84,0,0,1,4.76,17.75v57.24H1122.08v24.37a5,5,0,0,0,5,5h119.5V840H1126.05A33.11,33.11,0,0,1,1108.3,835.12Zm13.78-84.93h93V722.9a5,5,0,0,0-5-5h-82.94a5,5,0,0,0-5,5Z"/><path class="cls-1" d="M1339.88,840l-84.52-153.69h36.56l63.33,116.33,63.33-116.33h36.57L1370.09,840Z"/><path class="cls-1" d="M1486.42,835.12a38.79,38.79,0,0,1-12.85-12.85,33.15,33.15,0,0,1-4.91-17.76v-5h31.54v4a5,5,0,0,0,5,5h82.94a5,5,0,0,0,5-5v-19.6a4.6,4.6,0,0,0-1.46-3.32,4.89,4.89,0,0,0-3.57-1.45h-84a33.11,33.11,0,0,1-17.75-4.9,38.82,38.82,0,0,1-12.85-12.86,33.11,33.11,0,0,1-4.91-17.75V721.84a33.14,33.14,0,0,1,4.91-17.75,38.79,38.79,0,0,1,12.85-12.85,33.11,33.11,0,0,1,17.75-4.91h85.06a33.63,33.63,0,0,1,18,4.91,39,39,0,0,1,12.85,12.85,33.22,33.22,0,0,1,4.9,17.75v5h-31.8v-4a5,5,0,0,0-5-5h-82.94a5,5,0,0,0-5,5v19.61a4.55,4.55,0,0,0,1.45,3.31,4.83,4.83,0,0,0,3.58,1.46h84a33.62,33.62,0,0,1,18,4.9A39,39,0,0,1,1620.1,765a33.23,33.23,0,0,1,4.9,17.76v21.72a33.23,33.23,0,0,1-4.9,17.76,39,39,0,0,1-12.85,12.85,33.62,33.62,0,0,1-18,4.9h-85.06A33.11,33.11,0,0,1,1486.42,835.12Z"/><path class="cls-2" d="M787.21,840V791.8H664V761.06L788,649.24h30.73V760H846.3v31.8H818.74V840ZM712,760h75.25V696.4Z"/><path class="cls-3" d="M756.46,461.81a80.61,80.61,0,0,1-44.57-13.53l-.9-.61c-.72-.48-1.46-1-2.17-1.5L658,410.86a89.64,89.64,0,0,1-38.5-73.47l-.29-175.46a89.74,89.74,0,0,1,38.06-73.47l52.16-36.7c14.48-10.09,30.31-15.21,47-15.21,38.73,0,68.87,27.08,72.18,30.17L818.23,79.88a12.48,12.48,0,0,0-6.91-2.18,12.1,12.1,0,0,0-6.94,2.22L702,152a12,12,0,0,0-5.11,9.82l.29,175.45a12.07,12.07,0,0,0,5.15,9.81l102.81,71.42a12,12,0,0,0,6.78,2.06,12.28,12.28,0,0,0,5.85-1.45l9.55,13.78C819.54,439.65,791.32,461.81,756.46,461.81Z"/><path class="cls-4" d="M800.37,425.4,697.55,354a20.49,20.49,0,0,1-8.76-16.71l-.29-175.47a20.49,20.49,0,0,1,8.68-16.71L799.56,73a20.47,20.47,0,0,1,11.76-3.73,20.84,20.84,0,0,1,11.6,3.61c-2.43-2.27-56-51.14-108.9-14-.08,0-.17.12-.25.16L662.14,95.35a81.34,81.34,0,0,0-34.48,66.56L628,337.38a81.28,81.28,0,0,0,34.88,66.56l50.94,35.41c.9.65,1.83,1.26,2.72,1.86,48.71,31.68,97.31-7.74,105.34-14.72A20.74,20.74,0,0,1,800.37,425.4Z"/><path class="cls-5" d="M926.25,209.94l-.09-48.46A12,12,0,0,0,921,151.7L817.62,79.49l-.55-.54c-2.15-2-28.43-25.54-60.57-25.54-2.14,0-5,.33-10.65.91-13.64,1.41-24.66,3.28-32.08,4.69l-22.25,5.36,68.18-48a89.53,89.53,0,0,1,102.94-.21L965.53,88a89.73,89.73,0,0,1,38.33,73.34l.14,48.61Z"/><path class="cls-6" d="M714,58.85l50.54-35.57a81.09,81.09,0,0,1,93.25-.21l102.9,71.84a81.28,81.28,0,0,1,34.72,66.44l.12,48.59H934.67l-.08-48.47a20.4,20.4,0,0,0-8.72-16.67L823,73l-.08-.08C820.49,70.61,766.91,21.74,714,58.85Z"/><path class="cls-7" d="M812,498.32a89.29,89.29,0,0,1-51.17-16l-49.16-34.15L694.21,436c11.64,2.41,29.22,5.61,51.51,8,7.54.81,9.78.92,10.74.92,29.76,0,55.07-20.67,59.84-24.81l.65-.57.75-.42a11,11,0,0,0,1-.62l102.72-72.3a11.84,11.84,0,0,0,5.06-9.76l-.09-48.08h77.7l.09,47.85a89.69,89.69,0,0,1-38.05,73.55L863.59,482A89,89,0,0,1,812,498.32Z"/><path class="cls-8" d="M995.79,336.24a81.26,81.26,0,0,1-34.47,66.64l-102.58,72.2a81.2,81.2,0,0,1-93.09.29l-49.16-34.16c48.71,31.68,97.31-7.74,105.34-14.72a17.61,17.61,0,0,0,1.9-1.17l102.58-72.2A20.28,20.28,0,0,0,935,336.41l-.08-48h60.84Z"/></g></g></svg>