<svg xmlns="http://www.w3.org/2000/svg" xmlns:xlink="http://www.w3.org/1999/xlink" viewBox="0 0 1928.67 449.08"><defs><style>.cls-1{stroke-miterlimit:10;stroke-width:0.25px;fill:url(#Gradiente_sem_nome_47);stroke:url(#Gradiente_sem_nome_42);}.cls-2{fill:url(#Gradiente_sem_nome_47-2);}.cls-3{fill:url(#Gradiente_sem_nome_52);}.cls-4{fill:url(#Gradiente_sem_nome_52-2);}.cls-5{fill:url(#Gradiente_sem_nome_57);}.cls-6{fill:url(#Gradiente_sem_nome_57-2);}.cls-7{fill:#2b2b2b;}.cls-8{fill:#00a0eb;}</style><linearGradient id="Gradiente_sem_nome_47" x1="0.13" y1="224.56" x2="121.02" y2="224.56" gradientUnits="userSpaceOnUse"><stop offset="0" stop-color="#009ceb"/><stop offset="0.46" stop-color="#009ceb"/><stop offset="1" stop-color="#0078d7"/></linearGradient><linearGradient id="Gradiente_sem_nome_42" y1="224.56" x2="189.04" y2="224.56" gradientUnits="userSpaceOnUse"><stop offset="0" stop-color="#2b2b2b"/><stop offset="0.46" stop-color="#009ceb"/><stop offset="1" stop-color="#0075d6"/></linearGradient><linearGradient id="Gradiente_sem_nome_47-2" x1="7.72" y1="224.56" x2="120.43" y2="224.56" xlink:href="#Gradiente_sem_nome_47"/><linearGradient id="Gradiente_sem_nome_52" x1="206.07" y1="4.49" x2="206.07" y2="263" gradientUnits="userSpaceOnUse"><stop offset="0.01" stop-color="#009ceb"/><stop offset="0.5" stop-color="#009ceb"/><stop offset="1" stop-color="#0076d6"/></linearGradient><linearGradient id="Gradiente_sem_nome_52-2" x1="212.4" y1="11.9" x2="212.4" y2="260.03" xlink:href="#Gradiente_sem_nome_52"/><linearGradient id="Gradiente_sem_nome_57" x1="207.39" y1="448.14" x2="207.39" y2="186.16" gradientUnits="userSpaceOnUse"><stop offset="0" stop-color="#0076d7"/><stop offset="0.51" stop-color="#009ceb"/><stop offset="1" stop-color="#009ceb"/></linearGradient><linearGradient id="Gradiente_sem_nome_57-2" x1="213.63" y1="440.58" x2="213.63" y2="189.12" xlink:href="#Gradiente_sem_nome_57"/></defs><g id="Camada_2" data-name="Camada 2"><g id="OBJECTS"><path class="cls-1" d="M123.79,416.17A72.73,72.73,0,0,1,83.63,404l-.81-.55c-.66-.44-1.32-.89-2-1.35L35.08,370.26a80.79,80.79,0,0,1-34.7-66.2L.13,145.93A80.85,80.85,0,0,1,34.42,79.72l47-33.08c13.06-9.09,27.33-13.7,42.41-13.7,34.9,0,62.06,24.4,65,27.19L179.46,72a11.24,11.24,0,0,0-6.23-2A10.94,10.94,0,0,0,167,72L74.75,137a10.78,10.78,0,0,0-4.6,8.85l.26,158.11a10.87,10.87,0,0,0,4.64,8.84l92.65,64.36a10.75,10.75,0,0,0,6.11,1.86,11,11,0,0,0,5.27-1.31l8.6,12.42C180.64,396.21,155.21,416.17,123.79,416.17Z"/><path class="cls-2" d="M163.37,383.36,70.7,319a18.45,18.45,0,0,1-7.89-15.06l-.26-158.12a18.5,18.5,0,0,1,7.82-15.07l92.26-64.95a18.47,18.47,0,0,1,10.6-3.36,18.83,18.83,0,0,1,10.46,3.25C181.5,63.63,133.21,19.59,85.54,53c-.07,0-.14.11-.21.15L38.79,85.93a73.32,73.32,0,0,0-31.07,60L8,304a73.29,73.29,0,0,0,31.43,60l45.92,31.91c.8.58,1.64,1.13,2.44,1.68,43.9,28.55,87.69-7,94.93-13.27A18.68,18.68,0,0,1,163.37,383.36Z"/><path class="cls-3" d="M276.81,189.19l-.09-43.66a10.8,10.8,0,0,0-4.62-8.82L178.91,71.63l-.5-.48c-1.93-1.78-25.62-23-54.58-23-1.93,0-4.49.3-9.6.82-12.29,1.27-22.22,3-28.9,4.23L65.27,58l61.45-43.25a80.67,80.67,0,0,1,92.76-.19L312.21,79.3a80.86,80.86,0,0,1,34.54,66.09l.12,43.8Z"/><path class="cls-4" d="M85.54,53l45.55-32a73.08,73.08,0,0,1,84-.19l92.74,64.74a73.25,73.25,0,0,1,31.29,59.87l.11,43.79H284.39l-.07-43.68a18.38,18.38,0,0,0-7.86-15l-92.7-64.74-.07-.07C181.5,63.63,133.21,19.59,85.54,53Z"/><path class="cls-5" d="M173.86,449.08a80.57,80.57,0,0,1-46.12-14.44l-44.3-30.78L67.7,392.94c10.48,2.17,26.32,5.06,46.41,7.21,6.8.72,8.81.83,9.68.83,26.82,0,49.63-18.63,53.93-22.37l.59-.51.68-.38c.31-.18.64-.34.93-.55L272.49,312a10.68,10.68,0,0,0,4.56-8.8L277,259.89h70l.09,43.12a80.84,80.84,0,0,1-34.3,66.28l-92.44,65.06A80.2,80.2,0,0,1,173.86,449.08Z"/><path class="cls-6" d="M339.48,303a73.23,73.23,0,0,1-31.07,60.05L216,428.14a73.2,73.2,0,0,1-83.89.26L87.77,397.62c43.9,28.55,87.69-7,94.93-13.27a16.9,16.9,0,0,0,1.72-1.06l92.44-65.06a18.31,18.31,0,0,0,7.79-15.07l-.08-43.27H339.4Z"/><path class="cls-7" d="M498.82,296.36a32,32,0,0,1-32.23-32.23V156.67a32,32,0,0,1,32.23-32.24H638v28.9H503.84a8.65,8.65,0,0,0-6.21,2.27,8,8,0,0,0-2.39,6.09v97.42a8,8,0,0,0,2.39,6.09,8.61,8.61,0,0,0,6.21,2.27H638v28.89Z"/><path class="cls-7" d="M677.92,292a35,35,0,0,1-11.58-11.58,29.84,29.84,0,0,1-4.42-16V112.26h28.66V263.41a4.34,4.34,0,0,0,1.31,3.22,4.09,4.09,0,0,0,3,1.32h25.79v28.41H693.92A29.81,29.81,0,0,1,677.92,292Z"/><path class="cls-7" d="M755.88,292a33.69,33.69,0,0,1-11.58-11.58,30.47,30.47,0,0,1-4.3-16V157.86h28.42V263.41A4.49,4.49,0,0,0,773,268H847.7a4.49,4.49,0,0,0,4.53-4.54V157.86h28.42V264.37a30.47,30.47,0,0,1-4.3,16A34,34,0,0,1,864.89,292a30.27,30.27,0,0,1-16.24,4.41H772A30.45,30.45,0,0,1,755.88,292Z"/><path class="cls-7" d="M901.19,296.36V112.49H929.6v45.37h80.48a30.12,30.12,0,0,1,15.88,4.42,33.77,33.77,0,0,1,11.58,11.58,30.58,30.58,0,0,1,4.29,16v74.51a30.56,30.56,0,0,1-4.29,16A33.77,33.77,0,0,1,1026,292a30,30,0,0,1-15.88,4.41ZM934.14,268h75a4.13,4.13,0,0,0,3-1.32,4.37,4.37,0,0,0,1.31-3.22V190.82a4.39,4.39,0,0,0-1.31-3.22,4.13,4.13,0,0,0-3-1.32h-75a4.48,4.48,0,0,0-3.1,1.32,4.18,4.18,0,0,0-1.44,3.22v72.59a4.17,4.17,0,0,0,1.44,3.22A4.48,4.48,0,0,0,934.14,268Z"/><path class="cls-7" d="M1249.54,296.36V124.43h139.69a31.17,31.17,0,0,1,16.12,4.3,33.06,33.06,0,0,1,11.71,11.7,31.16,31.16,0,0,1,4.41,16.24V264.13a31.16,31.16,0,0,1-4.41,16.24,33.06,33.06,0,0,1-11.71,11.7,31.16,31.16,0,0,1-16.12,4.29Zm33-28.89H1388a4.58,4.58,0,0,0,3.22-1.19,4,4,0,0,0,1.32-3.11V157.62a4,4,0,0,0-1.32-3.1,4.58,4.58,0,0,0-3.22-1.19H1282.49a4.58,4.58,0,0,0-3.22,1.19,4,4,0,0,0-1.31,3.1V263.17a4,4,0,0,0,1.31,3.11A4.58,4.58,0,0,0,1282.49,267.47Z"/><path class="cls-7" d="M1463,292a35.12,35.12,0,0,1-11.58-11.58,29.84,29.84,0,0,1-4.42-16V189.86a29.84,29.84,0,0,1,4.42-16A35.12,35.12,0,0,1,1463,162.28a29.93,29.93,0,0,1,16-4.42h76.66a30.33,30.33,0,0,1,16.23,4.42,34,34,0,0,1,11.46,11.58,30.47,30.47,0,0,1,4.3,16v51.58H1475.44v22A4.49,4.49,0,0,0,1480,268h107.69v28.41H1479A29.83,29.83,0,0,1,1463,292Zm12.42-76.54h83.82V190.82a4.49,4.49,0,0,0-4.54-4.54H1480a4.47,4.47,0,0,0-4.54,4.54Z"/><path class="cls-7" d="M1671.73,296.36l-76.18-138.5h33l57.07,104.84,57.08-104.84h32.95L1699,296.36Z"/><path class="cls-7" d="M1803.78,292a35,35,0,0,1-11.58-11.58,29.84,29.84,0,0,1-4.42-16v-4.54h28.42v3.58a4.49,4.49,0,0,0,4.53,4.54h74.75a4.49,4.49,0,0,0,4.53-4.54V245.74a4.12,4.12,0,0,0-1.31-3,4.38,4.38,0,0,0-3.22-1.32h-75.7a29.92,29.92,0,0,1-16-4.41,35,35,0,0,1-11.58-11.59,29.82,29.82,0,0,1-4.42-16V189.86a29.84,29.84,0,0,1,4.42-16,35,35,0,0,1,11.58-11.58,29.93,29.93,0,0,1,16-4.42h76.65a30.37,30.37,0,0,1,16.24,4.42,35.22,35.22,0,0,1,11.58,11.58,29.84,29.84,0,0,1,4.42,16v4.54H1900v-3.58a4.47,4.47,0,0,0-4.53-4.54h-74.75a4.47,4.47,0,0,0-4.53,4.54v17.67a4.08,4.08,0,0,0,1.31,3,4.36,4.36,0,0,0,3.22,1.32h75.7a30.36,30.36,0,0,1,16.24,4.41,35.15,35.15,0,0,1,11.58,11.59,29.82,29.82,0,0,1,4.42,16v19.58a29.84,29.84,0,0,1-4.42,16A35.22,35.22,0,0,1,1912.67,292a30.27,30.27,0,0,1-16.24,4.41h-76.65A29.83,29.83,0,0,1,1803.78,292Z"/><path class="cls-8" d="M1173.91,292.13V248.67h-111V221L1174.63,120.2h27.7V220h24.83v28.65h-24.83v43.46ZM1106.09,220h67.82V162.71Z"/></g></g></svg>